<?xml version="1.0" encoding="utf-8"?>
<svg xmlns="http://www.w3.org/2000/svg" xmlns:xlink="http://www.w3.org/1999/xlink" style="margin: auto; background: none; display: block; shape-rendering: auto;" width="207px" height="207px" viewBox="0 0 100 100" preserveAspectRatio="xMidYMid">
<g transform="translate(50 50)">
<g>
<animateTransform attributeName="transform" type="rotate" values="0;36" keyTimes="0;1" dur="0.49504950495049505s" repeatCount="indefinite"></animateTransform><path d="M30.4138126514911 -6 L38.4138126514911 -6 L38.4138126514911 6 L30.4138126514911 6 A31 31 0 0 1 28.13200281254692 13.022688576283022 L28.13200281254692 13.022688576283022 L34.6041387675465 17.724970594622807 L27.55071574003682 27.433174527122176 L21.078579785037242 22.730892508782393 A31 31 0 0 1 15.10472407081745 27.07115274133091 L15.10472407081745 27.07115274133091 L17.57686002581703 34.679604871692135 L6.164181830275193 38.3878088041915 L3.6920458752756127 30.779356673830275 A31 31 0 0 1 -3.6920458752756087 30.779356673830275 L-3.6920458752756087 30.779356673830275 L-6.164181830275188 38.3878088041915 L-17.576860025817027 34.679604871692135 L-15.104724070817447 27.07115274133091 A31 31 0 0 1 -21.078579785037242 22.730892508782393 L-21.078579785037242 22.730892508782393 L-27.55071574003682 27.43317452712218 L-34.604138767546495 17.724970594622814 L-28.132002812546915 13.022688576283027 A31 31 0 0 1 -30.4138126514911 6.000000000000001 L-30.4138126514911 6.000000000000001 L-38.4138126514911 6.000000000000002 L-38.4138126514911 -5.999999999999993 L-30.4138126514911 -5.999999999999994 A31 31 0 0 1 -28.13200281254692 -13.02268857628302 L-28.13200281254692 -13.02268857628302 L-34.6041387675465 -17.724970594622803 L-27.550715740036825 -27.43317452712217 L-21.078579785037245 -22.730892508782386 A31 31 0 0 1 -15.104724070817465 -27.0711527413309 L-15.104724070817465 -27.0711527413309 L-17.576860025817044 -34.67960487169213 L-6.164181830275184 -38.3878088041915 L-3.692045875275603 -30.779356673830275 A31 31 0 0 1 3.692045875275591 -30.77935667383028 L3.692045875275591 -30.77935667383028 L6.164181830275169 -38.38780880419151 L17.576860025817034 -34.679604871692135 L15.104724070817456 -27.071152741330906 A31 31 0 0 1 21.078579785037228 -22.730892508782404 L21.078579785037228 -22.730892508782404 L27.550715740036807 -27.43317452712219 L34.6041387675465 -17.724970594622803 L28.132002812546922 -13.022688576283018 A31 31 0 0 1 30.413812651491096 -6.000000000000018 M0 -18A18 18 0 1 0 0 18 A18 18 0 1 0 0 -18" fill="#e15b64"></path></g></g>
<!-- [ldio] generated by https://loading.io/ --></svg>